<?xml version="1.0" standalone="no"?>
<!DOCTYPE svg PUBLIC "-//W3C//DTD SVG 20010904//EN"
 "http://www.w3.org/TR/2001/REC-SVG-20010904/DTD/svg10.dtd">
<svg version="1.0" xmlns="http://www.w3.org/2000/svg"
 width="225.000000pt" height="225.000000pt" viewBox="0 0 225.000000 225.000000"
 preserveAspectRatio="xMidYMid meet">

<g transform="translate(0.000000,225.000000) scale(0.100000,-0.100000)"
fill="#000000" stroke="none">
<path d="M1081 1830 c-45 -11 -83 -40 -101 -77 l-15 -31 -217 -4 c-213 -3
-217 -3 -242 -27 -23 -22 -26 -32 -26 -98 l0 -73 166 0 165 0 -3 23 c-3 21 -6
22 -145 25 l-143 3 0 34 c0 64 6 65 261 65 l229 0 0 24 c0 61 85 109 154 86
42 -13 76 -53 76 -86 l0 -24 229 0 c255 0 261 -1 261 -65 l0 -34 -117 -3
c-110 -3 -118 -4 -118 -23 0 -19 8 -20 138 -23 l137 -3 0 74 c0 66 -3 76 -26
98 -25 24 -29 24 -245 27 -171 3 -219 6 -219 16 0 20 -38 65 -68 80 -38 19
-91 25 -131 16z"/>
<path d="M924 1555 c-13 -32 7 -35 226 -35 176 0 219 3 223 14 12 32 -16 36
-230 36 -178 0 -215 -2 -219 -15z"/>
<path d="M616 1472 c-2 -4 11 -215 30 -467 39 -510 41 -519 108 -564 l40 -26
331 0 331 0 40 26 c67 44 70 58 104 519 16 228 33 436 36 462 5 39 3 49 -11
54 -9 4 -20 3 -25 -2 -5 -5 -25 -217 -45 -472 -38 -498 -38 -497 -96 -528 -41
-21 -627 -21 -668 0 -58 31 -58 31 -96 523 -19 252 -37 464 -40 471 -5 13 -31
16 -39 4z"/>
<path d="M875 1238 c-3 -7 -4 -141 -3 -298 3 -277 4 -285 23 -285 20 0 20 7
20 295 0 273 -1 295 -18 298 -9 2 -19 -3 -22 -10z"/>
<path d="M1105 1238 c-3 -7 -4 -141 -3 -298 3 -277 4 -285 23 -285 20 0 20 7
20 295 0 273 -1 295 -18 298 -9 2 -19 -3 -22 -10z"/>
<path d="M1335 1238 c-3 -7 -4 -141 -3 -298 3 -277 4 -285 23 -285 20 0 20 7
20 295 0 273 -1 295 -18 298 -9 2 -19 -3 -22 -10z"/>
</g>
</svg>
