<?xml version="1.0" standalone="no"?>
<!DOCTYPE svg PUBLIC "-//W3C//DTD SVG 20010904//EN"
 "http://www.w3.org/TR/2001/REC-SVG-20010904/DTD/svg10.dtd">
<svg version="1.0" xmlns="http://www.w3.org/2000/svg"
 width="225.000000pt" height="225.000000pt" viewBox="0 0 225.000000 225.000000"
 preserveAspectRatio="xMidYMid meet">

<g transform="translate(0.000000,225.000000) scale(0.100000,-0.100000)"
fill="#000000" stroke="none">
<path d="M1635 2016 c-16 -8 -57 -41 -90 -75 l-60 -61 184 -184 183 -183 68
72 c116 122 110 161 -48 318 -126 126 -166 145 -237 113z"/>
<path d="M892 1287 l-444 -444 56 -17 c44 -14 56 -22 56 -38 0 -11 4 -37 10
-57 5 -20 12 -52 15 -72 l5 -37 91 -17 c90 -18 91 -19 106 -54 7 -20 17 -44
21 -54 6 -14 94 69 444 420 241 241 440 440 442 443 3 3 -77 88 -177 188
l-182 182 -443 -443z"/>
<path d="M263 410 c-42 -121 -45 -143 -16 -154 12 -5 234 67 252 81 5 4 -180
193 -189 193 -3 0 -24 -54 -47 -120z"/>
</g>
</svg>
